<?xml version="1.0" encoding="UTF-8" standalone="no"?>
<!DOCTYPE svg PUBLIC "-//W3C//DTD SVG 1.1//EN"
 "http://www.w3.org/Graphics/SVG/1.1/DTD/svg11.dtd">
<!-- Generated by graphviz version 2.30.1 (20150306.0020)
 -->
<!-- Title: WFSA Pages: 1 -->
<svg width="392pt" height="65pt"
 viewBox="0.00 0.00 392.00 64.84" xmlns="http://www.w3.org/2000/svg" xmlns:xlink="http://www.w3.org/1999/xlink">
<g id="graph0" class="graph" transform="scale(1 1) rotate(0) translate(4 60.8395)">
<title>WFSA</title>
<polygon fill="white" stroke="white" points="-4,5 -4,-60.8395 389,-60.8395 389,5 -4,5"/>
<!-- 0 -->
<g id="node1" class="node"><title>0</title>
<ellipse fill="none" stroke="black" stroke-width="2" cx="18" cy="-24.8395" rx="18" ry="18"/>
<text text-anchor="middle" x="18" y="-21.1395" font-family="Times,serif" font-size="14.00">0</text>
</g>
<!-- 1 -->
<g id="node2" class="node"><title>1</title>
<ellipse fill="none" stroke="black" stroke-width="2" cx="102" cy="-24.8395" rx="18" ry="18"/>
<text text-anchor="middle" x="102" y="-21.1395" font-family="Times,serif" font-size="14.00">1</text>
</g>
<!-- 0&#45;&gt;1 -->
<g id="edge1" class="edge"><title>0&#45;&gt;1</title>
<path fill="none" stroke="black" d="M36.3901,-24.8395C47.2257,-24.8395 61.3988,-24.8395 73.7087,-24.8395"/>
<polygon fill="black" stroke="black" points="73.9162,-28.3396 83.9162,-24.8395 73.9161,-21.3396 73.9162,-28.3396"/>
<text text-anchor="middle" x="60" y="-28.6395" font-family="Times,serif" font-size="14.00">1/0</text>
</g>
<!-- 2 -->
<g id="node3" class="node"><title>2</title>
<ellipse fill="none" stroke="black" stroke-width="2" cx="186" cy="-24.8395" rx="18" ry="18"/>
<text text-anchor="middle" x="186" y="-21.1395" font-family="Times,serif" font-size="14.00">2</text>
</g>
<!-- 1&#45;&gt;2 -->
<g id="edge2" class="edge"><title>1&#45;&gt;2</title>
<path fill="none" stroke="black" d="M120.39,-24.8395C131.226,-24.8395 145.399,-24.8395 157.709,-24.8395"/>
<polygon fill="black" stroke="black" points="157.916,-28.3396 167.916,-24.8395 157.916,-21.3396 157.916,-28.3396"/>
<text text-anchor="middle" x="144" y="-28.6395" font-family="Times,serif" font-size="14.00">2/0</text>
</g>
<!-- 3 -->
<g id="node4" class="node"><title>3</title>
<ellipse fill="none" stroke="black" stroke-width="2" cx="270" cy="-24.8395" rx="18" ry="18"/>
<text text-anchor="middle" x="270" y="-21.1395" font-family="Times,serif" font-size="14.00">3</text>
</g>
<!-- 2&#45;&gt;3 -->
<g id="edge3" class="edge"><title>2&#45;&gt;3</title>
<path fill="none" stroke="black" d="M201.752,-34.0023C206.998,-36.7685 213.076,-39.441 219,-40.8395 226.786,-42.6775 229.214,-42.6775 237,-40.8395 239.684,-40.2058 242.4,-39.3105 245.056,-38.2635"/>
<polygon fill="black" stroke="black" points="246.648,-41.3836 254.248,-34.0023 243.703,-35.0328 246.648,-41.3836"/>
<text text-anchor="middle" x="228" y="-45.6395" font-family="Times,serif" font-size="14.00">3/0</text>
</g>
<!-- 2&#45;&gt;3 -->
<g id="edge4" class="edge"><title>2&#45;&gt;3</title>
<path fill="none" stroke="black" d="M203.919,-22.9557C208.781,-22.4951 214.095,-22.0689 219,-21.8395 226.991,-21.4657 229.009,-21.4657 237,-21.8395 238.533,-21.9112 240.106,-22.0021 241.692,-22.1073"/>
<polygon fill="black" stroke="black" points="241.83,-25.6301 252.081,-22.9557 242.399,-18.6533 241.83,-25.6301"/>
<text text-anchor="middle" x="228" y="-25.6395" font-family="Times,serif" font-size="14.00">4/0</text>
</g>
<!-- 2&#45;&gt;3 -->
<g id="edge5" class="edge"><title>2&#45;&gt;3</title>
<path fill="none" stroke="black" d="M199.667,-12.9375C205.173,-8.55229 211.967,-4.10483 219,-1.83949 226.615,0.613163 229.385,0.613163 237,-1.83949 240.846,-3.07835 244.621,-4.96982 248.153,-7.14683"/>
<polygon fill="black" stroke="black" points="246.148,-10.0162 256.333,-12.9375 250.193,-4.30292 246.148,-10.0162"/>
<text text-anchor="middle" x="228" y="-5.63949" font-family="Times,serif" font-size="14.00">5/0</text>
</g>
<!-- 4 -->
<g id="node5" class="node"><title>4</title>
<ellipse fill="none" stroke="black" stroke-width="2" cx="362" cy="-24.8395" rx="18" ry="18"/>
<ellipse fill="none" stroke="black" stroke-width="2" cx="362" cy="-24.8395" rx="22" ry="22"/>
<text text-anchor="middle" x="362" y="-21.1395" font-family="Times,serif" font-size="14.00">4</text>
</g>
<!-- 3&#45;&gt;4 -->
<g id="edge6" class="edge"><title>3&#45;&gt;4</title>
<path fill="none" stroke="black" d="M288.353,-24.8395C300.076,-24.8395 315.886,-24.8395 329.763,-24.8395"/>
<polygon fill="black" stroke="black" points="329.899,-28.3396 339.899,-24.8395 329.899,-21.3396 329.899,-28.3396"/>
<text text-anchor="middle" x="314" y="-28.6395" font-family="Times,serif" font-size="14.00">&#45;1/0</text>
</g>
</g>
</svg>
